<svg xmlns="http://www.w3.org/2000/svg" version="1.1" xmlns:xlink="http://www.w3.org/1999/xlink" xmlns:svgjs="http://svgjs.com/svgjs" width="100%" height="100%"><svg width="100%" height="100%" viewBox="0 0 64 64" version="1.1" xmlns="http://www.w3.org/2000/svg" xmlns:xlink="http://www.w3.org/1999/xlink" xml:space="preserve" xmlns:serif="http://www.serif.com/" style="fill-rule:evenodd;clip-rule:evenodd;stroke-linejoin:round;stroke-miterlimit:2;">
    <rect id="SvgjsRect1002" x="0" y="0" width="64" height="64" style="fill:none;"></rect>
    <g id="SvgjsG1001" serif:id="Artboard1">
        <g id="SvgjsG1000">
            <path d="M60,19.68L60,44.32C60,52.974 52.974,60 44.32,60L19.68,60C11.026,60 4,52.974 4,44.32L4,19.68C4,11.026 11.026,4 19.68,4L44.32,4C52.974,4 60,11.026 60,19.68ZM54.5,19.4C54.5,13.936 50.064,9.5 44.6,9.5L19.4,9.5C13.936,9.5 9.5,13.936 9.5,19.4L9.5,44.6C9.5,50.064 13.936,54.5 19.4,54.5L44.6,54.5C50.064,54.5 54.5,50.064 54.5,44.6L54.5,19.4Z" style="fill:rgb(18,103,74);"></path>
            <path d="M57,19L57,45C57,51.623 51.623,57 45,57L19,57C12.377,57 7,51.623 7,45L7,19C7,12.377 12.377,7 19,7L45,7C51.623,7 57,12.377 57,19ZM54.5,19.4C54.5,13.936 50.064,9.5 44.6,9.5L19.4,9.5C13.936,9.5 9.5,13.936 9.5,19.4L9.5,44.6C9.5,50.064 13.936,54.5 19.4,54.5L44.6,54.5C50.064,54.5 54.5,50.064 54.5,44.6L54.5,19.4Z" style="fill:rgb(255,180,0);"></path>
            <g transform="matrix(0.873181,-1.63461e-19,-1.44935e-19,1.02734,12.7981,34.9316)">
                <path d="M18.091,-11.96C18.36,-14.571 19.408,-16.785 21.236,-18.603C23.379,-20.735 26.526,-21.801 30.679,-21.801C34.146,-21.801 37.104,-20.796 39.552,-18.786C42,-16.776 43.284,-13.859 43.403,-10.034L36.795,-10.034C36.676,-12.198 35.813,-13.736 34.206,-14.648C33.134,-15.25 31.802,-15.551 30.21,-15.551C28.439,-15.551 27.025,-15.161 25.968,-14.379C24.912,-13.598 24.383,-12.508 24.383,-11.108C24.383,-9.822 24.904,-8.862 25.946,-8.227C26.616,-7.804 28.044,-7.307 30.232,-6.738L35.902,-5.248C38.388,-4.597 40.263,-3.727 41.528,-2.636C43.492,-0.943 44.475,1.506 44.475,4.712C44.475,8 43.325,10.731 41.026,12.903C38.726,15.076 35.478,16.163 31.281,16.163C26.995,16.163 23.624,15.092 21.169,12.952C18.713,10.812 17.485,7.87 17.485,4.127L24.048,4.127C24.257,5.77 24.666,6.999 25.276,7.813C26.392,9.294 28.305,10.035 31.013,10.035C32.636,10.035 33.953,9.839 34.965,9.449C36.885,8.7 37.845,7.308 37.845,5.274C37.845,4.086 37.368,3.166 36.416,2.515C35.463,1.88 33.968,1.319 31.929,0.831L28.446,-0.024C25.023,-0.87 22.657,-1.79 21.347,-2.783C21.134,-2.943 20.93,-3.111 20.737,-3.288C20.483,-4.221 20.13,-5.135 19.861,-6.064C19.292,-8.031 18.734,-10.008 18.091,-11.96Z" style="fill:rgb(255,180,0);fill-rule:nonzero;"></path>
            </g>
            <path d="M36.108,51.021L34.154,43.493L22.042,43.434L19.728,51.424L12.546,51.39L24.468,12.52L32.23,12.558L43.578,51.181C42.739,51.391 41.834,51.463 41.002,51.496C39.355,51.56 37.695,51.511 36.108,51.021ZM28.239,21.438L23.926,36.735L32.268,36.775L28.239,21.438Z" style="fill:rgb(18,103,74);"></path>
        </g>
    </g>
</svg><style>@media (prefers-color-scheme: light) { :root { filter: contrast(1) brightness(0.1); } }
@media (prefers-color-scheme: dark) { :root { filter: contrast(0.3846153846153846) brightness(4.5); } }
</style></svg>