<?xml version="1.0" standalone="no"?>
<!DOCTYPE svg PUBLIC "-//W3C//DTD SVG 20010904//EN"
 "http://www.w3.org/TR/2001/REC-SVG-20010904/DTD/svg10.dtd">
<svg version="1.0" xmlns="http://www.w3.org/2000/svg"
 width="700.000000pt" height="700.000000pt" viewBox="0 0 700.000000 700.000000"
 preserveAspectRatio="xMidYMid meet">
<metadata>
Created by potrace 1.14, written by Peter Selinger 2001-2017
</metadata>
<g transform="translate(0.000000,700.000000) scale(0.100000,-0.100000)"
fill="#000000" stroke="none">
<path d="M2127 6564 c-1 -1 -45 -4 -98 -8 -78 -4 -209 -25 -320 -51 -59 -13
-214 -72 -301 -114 -546 -264 -923 -814 -964 -1406 -9 -126 -9 -2837 0 -2965
5 -80 16 -149 42 -275 7 -36 54 -178 79 -240 49 -124 166 -325 240 -414 319
-387 754 -617 1220 -648 128 -8 2830 -8 2950 0 254 18 538 107 741 233 150 92
211 139 311 235 313 303 491 673 529 1101 9 97 9 2859 0 2969 -6 74 -22 183
-40 265 -23 107 -94 293 -154 404 -43 81 -151 243 -193 290 -138 156 -242 248
-387 343 -190 125 -451 228 -637 253 -27 3 -53 8 -56 10 -22 13 -375 17 -1582
18 -758 1 -1379 0 -1380 0z m2925 -619 c453 -71 823 -443 894 -900 18 -117 17
-2974 -1 -3092 -60 -390 -343 -726 -717 -852 -173 -59 -94 -56 -1738 -56
-1419 0 -1520 1 -1588 18 -170 41 -307 104 -432 198 -192 145 -329 350 -397
594 l-27 100 -3 1505 c-2 1634 -4 1583 53 1754 126 383 455 664 853 731 114
19 2979 19 3103 0z"/>
<path d="M2648 5543 c-14 -48 -67 -223 -117 -388 -51 -165 -101 -327 -111
-360 -10 -33 -45 -148 -78 -255 -33 -107 -85 -276 -115 -375 -98 -320 -343
-1119 -464 -1510 -35 -115 -71 -230 -78 -255 -15 -49 -19 -63 -130 -425 -115
-377 -152 -495 -168 -548 l-15 -47 106 -1 c59 0 232 -1 385 -2 154 -1 283 1
289 4 5 4 18 35 28 70 25 92 188 651 212 732 l20 68 358 -3 359 -2 12 -46 c7
-25 19 -56 26 -70 7 -14 13 -29 13 -34 0 -16 71 -148 118 -220 65 -98 201
-233 302 -299 76 -49 120 -72 238 -124 61 -27 265 -74 352 -81 120 -10 360 -6
455 7 95 13 274 70 365 116 288 145 504 429 594 782 29 111 40 221 40 383 0
467 -151 772 -474 962 -140 83 -176 96 -875 313 -77 24 -177 58 -222 75 l-83
32 -19 66 c-11 37 -36 121 -55 187 -19 66 -54 184 -77 262 l-41 142 31 40 c98
124 261 189 466 185 202 -3 332 -51 445 -164 96 -97 152 -226 167 -384 3 -33
7 -63 9 -65 5 -5 593 -8 616 -3 12 3 16 11 13 26 -2 11 -7 60 -10 107 -3 47
-7 94 -9 105 -2 10 -7 39 -11 64 -21 135 -84 317 -147 430 -133 238 -388 446
-648 529 -125 40 -213 53 -365 56 -190 4 -295 -9 -444 -51 -90 -26 -225 -87
-288 -130 -21 -14 -38 -22 -40 -17 -6 27 -46 161 -53 179 -8 20 -14 20 -432
23 l-424 2 -26 -88z m479 -1031 c72 -282 195 -752 263 -1007 40 -148 74 -277
75 -285 2 -8 17 -64 33 -125 17 -60 29 -112 27 -114 -2 -2 -23 -3 -47 -3 -24
0 -226 1 -450 1 -225 1 -408 5 -408 8 0 4 32 119 71 257 39 138 73 258 75 266
2 8 19 71 39 140 20 69 38 134 41 146 2 12 10 40 18 63 9 22 13 41 10 41 -3 0
-2 6 3 13 4 6 8 17 9 22 2 9 56 201 155 550 22 77 41 146 41 153 2 27 13 -4
45 -126z m1273 -1412 c74 -22 142 -42 150 -44 114 -29 283 -118 351 -186 85
-84 113 -161 111 -310 -3 -192 -89 -344 -239 -423 -71 -37 -188 -75 -199 -64
-6 5 -84 266 -200 667 -25 85 -61 206 -80 269 -32 106 -38 131 -31 131 1 0 63
-18 137 -40z"/>
</g>
</svg>
